<?xml version="1.0" encoding="UTF-8" standalone="no"?>
<!-- Generator: Adobe Illustrator 19.1.0, SVG Export Plug-In . SVG Version: 6.00 Build 0)  -->

<svg
   version="1.1"
   id="Capa_1"
   x="0px"
   y="0px"
   viewBox="164 -236.3 612 612"
   style="enable-background:new 164 -236.3 612 612;"
   xml:space="preserve"
   sodipodi:docname="arrow.svg"
   inkscape:version="1.3.2 (091e20e, 2023-11-25)"
   xmlns:inkscape="http://www.inkscape.org/namespaces/inkscape"
   xmlns:sodipodi="http://sodipodi.sourceforge.net/DTD/sodipodi-0.dtd"
   xmlns="http://www.w3.org/2000/svg"
   xmlns:svg="http://www.w3.org/2000/svg"><defs
   id="defs2" /><sodipodi:namedview
   id="namedview2"
   pagecolor="#505050"
   bordercolor="#eeeeee"
   borderopacity="1"
   inkscape:showpageshadow="0"
   inkscape:pageopacity="0"
   inkscape:pagecheckerboard="0"
   inkscape:deskcolor="#d1d1d1"
   inkscape:zoom="0.38562092"
   inkscape:cx="306"
   inkscape:cy="304.70339"
   inkscape:window-width="768"
   inkscape:window-height="480"
   inkscape:window-x="648"
   inkscape:window-y="239"
   inkscape:window-maximized="0"
   inkscape:current-layer="g1" />
<style
   type="text/css"
   id="style1">
	.st0{fill:#8998fe;}
</style>
<g
   id="g2">
	<g
   id="Right">
		<g
   id="g1">
			<path
   class="st0"
   d="M441.6-57.9L441.6-57.9c-5.2-4.6-11.9-7.6-19.4-7.6c-15.8,0-28.7,12.9-28.7,28.7c0,8.4,3.6,15.8,9.4,21.1     l-0.1,0.1l91.7,84l-91.7,84.1l0.1,0.1c-5.7,5.2-9.4,12.7-9.4,21.1c0,15.8,12.9,28.7,28.7,28.7c7.5,0,14.2-2.9,19.3-7.6l0.1,0.1     L556.3,89.6c5.9-5.5,9.3-13.1,9.3-21.2s-3.4-15.7-9.3-21.2L441.6-57.9z M470-237.6c-169,0-306,137-306,306s137,306,306,306     s306-137,306-306S639-237.6,470-237.6z M470,317.1c-137.1,0-248.6-111.5-248.6-248.6S332.9-180.2,470-180.2     S718.6-68.7,718.6,68.4S607.1,317.1,470,317.1z"
   id="path1"
   style="fill:#8a99fe;fill-opacity:1" />
		</g>
	</g>
</g>
</svg>
