<?xml version="1.0" encoding="UTF-8" standalone="no"?>
<!-- Generator: Adobe Illustrator 19.1.0, SVG Export Plug-In . SVG Version: 6.00 Build 0)  -->

<svg
   version="1.1"
   id="Capa_1"
   x="0px"
   y="0px"
   viewBox="-70 0 141.7 141.7"
   style="enable-background:new -70 0 141.7 141.7;"
   xml:space="preserve"
   sodipodi:docname="cf_icon_link_active.svg"
   inkscape:version="1.3.2 (091e20e, 2023-11-25)"
   xmlns:inkscape="http://www.inkscape.org/namespaces/inkscape"
   xmlns:sodipodi="http://sodipodi.sourceforge.net/DTD/sodipodi-0.dtd"
   xmlns="http://www.w3.org/2000/svg"
   xmlns:svg="http://www.w3.org/2000/svg"><defs
   id="defs2" /><sodipodi:namedview
   id="namedview2"
   pagecolor="#505050"
   bordercolor="#eeeeee"
   borderopacity="1"
   inkscape:showpageshadow="0"
   inkscape:pageopacity="0"
   inkscape:pagecheckerboard="0"
   inkscape:deskcolor="#d1d1d1"
   inkscape:zoom="1.6654905"
   inkscape:cx="70.849998"
   inkscape:cy="70.549787"
   inkscape:window-width="744"
   inkscape:window-height="480"
   inkscape:window-x="217"
   inkscape:window-y="25"
   inkscape:window-maximized="0"
   inkscape:current-layer="Capa_1" />
<style
   type="text/css"
   id="style1">
	.st0{fill:#8998fe;}
</style>
<g
   id="g2"
   style="fill:#8a99fe;fill-opacity:1">
	<g
   id="g1"
   style="fill:#8a99fe;fill-opacity:1">
		<path
   class="st0"
   d="M49.1,65.3l-21,21c-11.6,11.6-30.4,11.6-42,0c-1.8-1.8-3.3-3.9-4.5-6l9.8-9.8c0.5-0.5,1-0.7,1.6-1.1    c0.7,2.3,1.9,4.5,3.7,6.3c5.8,5.8,15.2,5.8,21,0l21-21c5.8-5.8,5.8-15.2,0-21s-15.2-5.8-21,0l-7.5,7.5c-6.1-2.4-12.6-3-18.9-2.1    L7.2,23.2c11.6-11.6,30.4-11.6,42,0C60.7,35,60.7,53.8,49.1,65.3L49.1,65.3z M-6.4,99.8l-7.5,7.5c-5.8,5.8-15.2,5.8-21,0    s-5.8-15.2,0-21l21-21c5.8-5.8,15.2-5.8,21,0c1.8,1.8,3,4,3.7,6.3c0.6-0.3,1.1-0.6,1.6-1l9.8-9.7c-1.2-2.1-2.7-4.2-4.5-6    c-11.6-11.6-30.4-11.6-42,0l-21,21c-11.6,11.6-11.6,30.4,0,42c11.6,11.6,30.4,11.6,42,0L12.6,102C6.2,102.8-0.3,102.2-6.4,99.8    L-6.4,99.8z"
   id="path1"
   style="fill:#8a99fe;fill-opacity:1" />
	</g>
</g>
</svg>
