<?xml version="1.0" encoding="UTF-8" standalone="no"?>
<!-- Generator: Adobe Illustrator 19.1.0, SVG Export Plug-In . SVG Version: 6.00 Build 0)  -->

<svg
   version="1.1"
   id="Capa_1"
   x="0px"
   y="0px"
   viewBox="-95 24.7 92 92"
   style="enable-background:new -95 24.7 92 92;"
   xml:space="preserve"
   sodipodi:docname="cf_icon_info_green.svg"
   inkscape:version="1.3.2 (091e20e, 2023-11-25)"
   xmlns:inkscape="http://www.inkscape.org/namespaces/inkscape"
   xmlns:sodipodi="http://sodipodi.sourceforge.net/DTD/sodipodi-0.dtd"
   xmlns="http://www.w3.org/2000/svg"
   xmlns:svg="http://www.w3.org/2000/svg"><defs
   id="defs1" /><sodipodi:namedview
   id="namedview1"
   pagecolor="#505050"
   bordercolor="#eeeeee"
   borderopacity="1"
   inkscape:showpageshadow="0"
   inkscape:pageopacity="0"
   inkscape:pagecheckerboard="0"
   inkscape:deskcolor="#d1d1d1"
   inkscape:zoom="2.5652174"
   inkscape:cx="46"
   inkscape:cy="46.194915"
   inkscape:window-width="736"
   inkscape:window-height="480"
   inkscape:window-x="732"
   inkscape:window-y="178"
   inkscape:window-maximized="0"
   inkscape:current-layer="g1" />
<style
   type="text/css"
   id="style1">
	.st0{fill:#8998fe;}
</style>
<g
   id="g1">
	<path
   class="st0"
   d="M-49.6,24.7C-75,25-95.3,45.9-95,71.3c0.3,25.4,21.2,45.7,46.6,45.4C-23,116.4-2.7,95.5-3,70.1   C-3.3,44.7-24.2,24.4-49.6,24.7z M-49.8,98.7h-0.3c-3.9-0.1-6.7-3-6.6-6.9c0.1-3.8,2.9-6.5,6.7-6.5h0.2c4,0.1,6.7,3,6.6,6.9   C-43.1,96-45.9,98.7-49.8,98.7z M-33.3,66c-0.9,1.3-2.9,2.9-5.5,4.9l-2.8,1.9c-1.5,1.2-2.5,2.3-2.8,3.4c-0.3,0.9-0.4,1.1-0.4,2.9   v0.5h-10.7v-0.9c0.1-3.7,0.2-5.9,1.8-7.7c2.4-2.8,7.8-6.3,8-6.4c0.8-0.6,1.4-1.2,1.9-1.9c1.1-1.6,1.6-2.8,1.6-4   c0-1.7-0.5-3.2-1.5-4.6c-0.9-1.3-2.7-2-5.3-2c-2.6,0-4.3,0.8-5.4,2.5S-56,58.1-56,60v0.5h-11.1V60c0.3-6.8,2.7-11.6,7.2-14.5   c2.8-1.8,6.3-2.7,10.4-2.7c5.3,0,9.9,1.3,13.4,3.9c3.6,2.6,5.4,6.5,5.4,11.6C-30.6,61-31.5,63.6-33.3,66z"
   id="path1"
   style="fill:#8a99fe;fill-opacity:1" />
</g>
</svg>
